<svg width="1407" height="747" viewBox="0 0 1407 747" fill="none" xmlns="http://www.w3.org/2000/svg">
<rect x="414.708" width="578" height="578" rx="60" fill="#FFC554"/>
<rect x="414.708" width="578" height="578" rx="60" fill="url(#paint0_linear)"/>
<path d="M721.183 267.696C707.756 203.401 663.068 147.954 598.024 124.671C563.402 111.092 525.455 128.627 513.267 163.837L510.124 172.923C478.862 273.087 530.501 385.788 625.807 424.638C630.021 426.311 634.277 427.501 638.534 428.278C637.434 362.653 670.047 303.691 721.183 267.696Z" fill="#573728"/>
<path d="M715.577 497.423L705.966 497.856C668.747 499.55 638.737 468.974 638.562 431.79C634.838 325.298 720.043 235.452 829.671 231.238L839.282 230.805C876.683 228.817 906.965 257.615 907 295.079C906.139 397.994 820.199 489.443 715.577 497.423Z" fill="#86573E"/>
<path d="M894.386 256.423C891.019 251.865 887.092 247.77 882.654 244.285C881.576 245.46 880.813 246.931 880.785 248.646C879.749 315.077 841.584 351.637 773.264 351.637H772.753C700.344 351.687 657.567 394.191 651.541 471.339C654.754 475.742 658.45 479.753 662.615 483.217C663.979 482.014 664.897 480.319 664.994 478.36C668.725 404.663 705.994 365.679 772.739 365.637H773.285C846.702 365.637 890.375 325.919 894.386 256.423Z" fill="#573728"/>
<path d="M641.058 394.354C610.691 366.445 604.16 325.705 622.886 278.993C649.535 211.891 626.071 156.562 557.106 122.423C551.737 123.9 546.571 126.007 541.769 128.814C542.462 130.158 543.498 131.341 544.982 132.02C612.078 162.729 634.52 211.765 609.887 273.806C588.067 328.225 597.097 375.895 635.318 408.047C636.466 409.012 637.845 409.468 639.231 409.586C639.65 404.455 640.231 399.373 641.058 394.354Z" fill="#86573E"/>
<path d="M656.186 141C637.401 141 609.954 142.959 599.331 155.349C591.534 156.077 583.738 156.077 575.941 155.349C565.272 142.776 537.825 141 519.04 141C495.286 141 476 160.314 476 184C476 207.686 495.332 227 519.04 227C536.913 227 562.445 207.185 574.117 187.189C582.962 186.323 591.99 186.323 600.881 187.189C612.553 207.185 638.267 227 655.958 227C679.712 227 698.998 207.686 698.998 184C699.226 160.314 679.894 141 656.186 141ZM518.493 160.496C506.456 160.496 496.699 170.244 496.699 182.269C496.699 184.729 494.739 186.87 492.095 186.87C489.45 186.87 487.672 184.729 487.672 182.269C487.672 165.279 501.487 151.477 518.493 151.477C520.955 151.477 523.098 153.435 523.098 156.077C523.098 158.355 521.001 160.496 518.493 160.496ZM578.585 177.851C579.816 174.48 580.181 166.007 580.181 164.914C585.151 165.096 589.938 165.096 594.908 164.914C594.726 165.78 595.455 174.48 596.504 177.851C593.631 177.668 581.595 177.668 578.585 177.851Z" fill="black"/>
<path d="M294.418 700.156L298.568 715H313.021L290.17 643.906H277.719L254.428 715H268.881L273.08 700.156H294.418ZM276.449 688.486L283.92 662.314L291.195 688.486H276.449ZM323.91 715H335.824L341.439 686.777L342.514 681.406L343.637 686.777L349.447 715H361.361L370.834 662.168H358.383L354.477 693.32L353.793 698.447L352.865 693.418L347.152 662.168H338.07L332.357 693.564L331.43 698.594L330.795 693.564L326.84 662.168H314.438L323.91 715ZM405.697 715.977C410.808 715.977 415.235 714.984 418.979 712.998C422.722 711.012 425.456 708.799 427.182 706.357L420.395 699.033C418.832 701.051 416.798 702.565 414.291 703.574C411.785 704.583 409.197 705.088 406.527 705.088C404.639 705.088 402.898 704.795 401.303 704.209C399.708 703.623 398.292 702.793 397.055 701.719C395.85 700.677 394.89 699.521 394.174 698.252C393.458 696.95 392.872 695.241 392.416 693.125V692.979H428.256V687.217C428.256 683.343 427.719 679.811 426.645 676.621C425.57 673.398 424.008 670.648 421.957 668.369C419.874 666.09 417.335 664.333 414.34 663.096C411.378 661.826 407.992 661.191 404.184 661.191C400.505 661.191 397.104 661.859 393.979 663.193C390.854 664.528 388.152 666.4 385.873 668.809C383.594 671.217 381.82 674.098 380.551 677.451C379.281 680.771 378.646 684.45 378.646 688.486V690.439C378.646 693.988 379.281 697.324 380.551 700.449C381.853 703.542 383.692 706.227 386.068 708.506C388.445 710.817 391.293 712.64 394.613 713.975C397.934 715.309 401.628 715.977 405.697 715.977ZM404.086 672.178C405.811 672.178 407.325 672.454 408.627 673.008C409.962 673.529 411.085 674.245 411.996 675.156C412.908 676.1 413.624 677.207 414.145 678.477C414.665 679.746 414.926 681.097 414.926 682.529V683.604H392.66C392.986 681.878 393.474 680.316 394.125 678.916C394.776 677.516 395.59 676.312 396.566 675.303C397.51 674.294 398.617 673.529 399.887 673.008C401.156 672.454 402.556 672.178 404.086 672.178ZM474.203 700.498C474.203 701.312 473.992 702.061 473.568 702.744C473.178 703.428 472.576 704.03 471.762 704.551C470.915 705.072 469.825 705.495 468.49 705.82C467.188 706.113 465.658 706.26 463.9 706.26C462.436 706.26 461.003 706.113 459.604 705.82C458.236 705.527 457.016 705.055 455.941 704.404C454.867 703.786 453.988 702.972 453.305 701.963C452.621 700.921 452.23 699.684 452.133 698.252H439.193C439.193 700.4 439.714 702.549 440.756 704.697C441.83 706.813 443.393 708.701 445.443 710.361C447.494 712.054 450.033 713.421 453.061 714.463C456.12 715.505 459.636 716.025 463.607 716.025C467.221 716.025 470.492 715.635 473.422 714.854C476.352 714.04 478.858 712.917 480.941 711.484C482.992 710.052 484.571 708.359 485.678 706.406C486.817 704.421 487.387 702.256 487.387 699.912C487.387 697.373 486.817 695.192 485.678 693.369C484.571 691.514 483.025 689.935 481.039 688.633C479.053 687.363 476.693 686.322 473.959 685.508C471.225 684.694 468.262 684.027 465.072 683.506C462.859 683.18 461.036 682.806 459.604 682.383C458.171 681.927 457.048 681.423 456.234 680.869C455.388 680.348 454.802 679.762 454.477 679.111C454.151 678.428 453.988 677.695 453.988 676.914C453.988 676.133 454.167 675.4 454.525 674.717C454.916 674.001 455.469 673.382 456.186 672.861C456.967 672.275 457.976 671.82 459.213 671.494C460.45 671.169 461.898 671.006 463.559 671.006C465.512 671.006 467.172 671.25 468.539 671.738C469.939 672.227 471.046 672.878 471.859 673.691C472.445 674.31 472.885 675.01 473.178 675.791C473.471 676.54 473.617 677.354 473.617 678.232H487.191C487.191 675.791 486.654 673.529 485.58 671.445C484.506 669.362 482.96 667.555 480.941 666.025C478.891 664.528 476.4 663.356 473.471 662.51C470.541 661.631 467.237 661.191 463.559 661.191C460.043 661.191 456.885 661.631 454.086 662.51C451.286 663.389 448.91 664.577 446.957 666.074C445.004 667.572 443.507 669.313 442.465 671.299C441.423 673.285 440.902 675.368 440.902 677.549C440.902 679.795 441.407 681.781 442.416 683.506C443.458 685.231 444.89 686.745 446.713 688.047C448.536 689.382 450.717 690.521 453.256 691.465C455.827 692.376 458.66 693.141 461.752 693.76C464.193 694.215 466.212 694.671 467.807 695.127C469.402 695.583 470.688 696.071 471.664 696.592C472.608 697.145 473.259 697.731 473.617 698.35C474.008 698.968 474.203 699.684 474.203 700.498ZM498.324 688.096V689.121C498.324 692.995 498.878 696.576 499.984 699.863C501.091 703.118 502.719 705.951 504.867 708.359C506.983 710.768 509.587 712.656 512.68 714.023C515.805 715.358 519.353 716.025 523.324 716.025C527.263 716.025 530.779 715.358 533.871 714.023C536.964 712.656 539.568 710.768 541.684 708.359C543.799 705.951 545.411 703.118 546.518 699.863C547.624 696.576 548.178 692.995 548.178 689.121V688.096C548.178 684.255 547.624 680.706 546.518 677.451C545.411 674.163 543.799 671.315 541.684 668.906C539.535 666.497 536.915 664.609 533.822 663.242C530.73 661.875 527.198 661.191 523.227 661.191C519.255 661.191 515.723 661.875 512.631 663.242C509.571 664.609 506.983 666.497 504.867 668.906C502.719 671.315 501.091 674.163 499.984 677.451C498.878 680.706 498.324 684.255 498.324 688.096ZM511.898 689.121V688.096C511.898 685.947 512.11 683.913 512.533 681.992C512.956 680.072 513.624 678.379 514.535 676.914C515.447 675.449 516.618 674.294 518.051 673.447C519.483 672.601 521.208 672.178 523.227 672.178C525.277 672.178 527.019 672.601 528.451 673.447C529.883 674.294 531.055 675.449 531.967 676.914C532.846 678.379 533.497 680.072 533.92 681.992C534.343 683.913 534.555 685.947 534.555 688.096V689.121C534.555 691.335 534.343 693.418 533.92 695.371C533.497 697.292 532.846 698.968 531.967 700.4C531.055 701.865 529.883 703.021 528.451 703.867C527.019 704.714 525.31 705.137 523.324 705.137C521.273 705.137 519.516 704.714 518.051 703.867C516.618 703.021 515.447 701.865 514.535 700.4C513.624 698.968 512.956 697.292 512.533 695.371C512.11 693.418 511.898 691.335 511.898 689.121ZM568.686 662.168H557.016V715H569.369V675.449C569.532 675.026 569.711 674.635 569.906 674.277C570.102 673.919 570.329 673.61 570.59 673.35C570.948 672.992 571.355 672.715 571.811 672.52C572.266 672.324 572.787 672.227 573.373 672.227C573.894 672.227 574.382 672.308 574.838 672.471C575.294 672.601 575.701 672.845 576.059 673.203C576.384 673.561 576.645 674.066 576.84 674.717C577.035 675.368 577.133 676.198 577.133 677.207V715H589.096V676.035C589.096 675.645 589.096 675.335 589.096 675.107C589.096 674.88 589.096 674.733 589.096 674.668C589.258 674.31 589.454 674.001 589.682 673.74C589.91 673.447 590.17 673.187 590.463 672.959C590.821 672.731 591.195 672.552 591.586 672.422C592.009 672.292 592.481 672.227 593.002 672.227C593.49 672.227 593.962 672.308 594.418 672.471C594.906 672.601 595.329 672.845 595.688 673.203C596.046 673.594 596.322 674.115 596.518 674.766C596.745 675.417 596.859 676.247 596.859 677.256V715H609.213V677.305C609.213 674.375 608.92 671.901 608.334 669.883C607.781 667.832 606.999 666.156 605.99 664.854C604.949 663.584 603.728 662.656 602.328 662.07C600.961 661.484 599.48 661.191 597.885 661.191C596.615 661.191 595.443 661.354 594.369 661.68C593.295 662.005 592.335 662.461 591.488 663.047C590.805 663.503 590.17 664.056 589.584 664.707C589.031 665.326 588.526 666.025 588.07 666.807C587.777 665.993 587.419 665.277 586.996 664.658C586.605 664.007 586.133 663.454 585.58 662.998C584.864 662.38 584.018 661.924 583.041 661.631C582.064 661.338 580.958 661.191 579.721 661.191C577.182 661.191 575.017 661.859 573.227 663.193C571.469 664.495 570.085 666.286 569.076 668.564L568.686 662.168ZM645.932 715.977C651.042 715.977 655.469 714.984 659.213 712.998C662.956 711.012 665.691 708.799 667.416 706.357L660.629 699.033C659.066 701.051 657.032 702.565 654.525 703.574C652.019 704.583 649.431 705.088 646.762 705.088C644.874 705.088 643.132 704.795 641.537 704.209C639.942 703.623 638.526 702.793 637.289 701.719C636.085 700.677 635.124 699.521 634.408 698.252C633.692 696.95 633.106 695.241 632.65 693.125V692.979H668.49V687.217C668.49 683.343 667.953 679.811 666.879 676.621C665.805 673.398 664.242 670.648 662.191 668.369C660.108 666.09 657.569 664.333 654.574 663.096C651.612 661.826 648.227 661.191 644.418 661.191C640.74 661.191 637.338 661.859 634.213 663.193C631.088 664.528 628.386 666.4 626.107 668.809C623.829 671.217 622.055 674.098 620.785 677.451C619.516 680.771 618.881 684.45 618.881 688.486V690.439C618.881 693.988 619.516 697.324 620.785 700.449C622.087 703.542 623.926 706.227 626.303 708.506C628.679 710.817 631.527 712.64 634.848 713.975C638.168 715.309 641.863 715.977 645.932 715.977ZM644.32 672.178C646.046 672.178 647.559 672.454 648.861 673.008C650.196 673.529 651.319 674.245 652.23 675.156C653.142 676.1 653.858 677.207 654.379 678.477C654.9 679.746 655.16 681.097 655.16 682.529V683.604H632.895C633.22 681.878 633.708 680.316 634.359 678.916C635.01 677.516 635.824 676.312 636.801 675.303C637.745 674.294 638.852 673.529 640.121 673.008C641.391 672.454 642.79 672.178 644.32 672.178ZM789.291 692.734H775.57C775.44 694.883 775.082 696.722 774.496 698.252C773.91 699.782 773.113 701.035 772.104 702.012C771.094 702.988 769.874 703.704 768.441 704.16C767.009 704.616 765.398 704.844 763.607 704.844C762.273 704.844 761.052 704.697 759.945 704.404C758.871 704.079 757.895 703.59 757.016 702.939C756.202 702.354 755.469 701.621 754.818 700.742C754.2 699.863 753.663 698.854 753.207 697.715C752.556 696.055 752.068 694.118 751.742 691.904C751.449 689.658 751.303 687.119 751.303 684.287V674.619C751.303 672.536 751.4 670.599 751.596 668.809C751.791 666.986 752.1 665.326 752.523 663.828C753.077 661.908 753.809 660.231 754.721 658.799C755.665 657.334 756.804 656.211 758.139 655.43C758.92 654.974 759.766 654.632 760.678 654.404C761.622 654.176 762.631 654.062 763.705 654.062C765.723 654.062 767.449 654.339 768.881 654.893C770.346 655.413 771.566 656.195 772.543 657.236C773.487 658.311 774.203 659.645 774.691 661.24C775.212 662.835 775.538 664.691 775.668 666.807H789.34C789.014 663.096 788.233 659.759 786.996 656.797C785.759 653.835 784.066 651.328 781.918 649.277C779.77 647.227 777.165 645.648 774.105 644.541C771.078 643.434 767.611 642.881 763.705 642.881C761.068 642.881 758.594 643.223 756.283 643.906C754.005 644.557 751.905 645.501 749.984 646.738C747.836 648.203 745.915 649.993 744.223 652.109C742.53 654.225 741.163 656.634 740.121 659.336C739.21 661.549 738.526 663.958 738.07 666.562C737.615 669.134 737.387 671.852 737.387 674.717V684.287C737.387 687.347 737.631 690.244 738.119 692.979C738.64 695.713 739.372 698.219 740.316 700.498C741.293 702.777 742.481 704.86 743.881 706.748C745.313 708.636 746.941 710.247 748.764 711.582C750.749 713.014 752.979 714.121 755.453 714.902C757.96 715.651 760.678 716.025 763.607 716.025C767.318 716.025 770.704 715.488 773.764 714.414C776.824 713.307 779.46 711.745 781.674 709.727C783.887 707.708 785.645 705.267 786.947 702.402C788.282 699.538 789.063 696.315 789.291 692.734ZM833.48 715H847.25V714.17C846.566 712.835 846.046 711.24 845.688 709.385C845.329 707.529 845.15 705.186 845.15 702.354V679.697C845.15 676.637 844.581 673.952 843.441 671.641C842.302 669.297 840.723 667.36 838.705 665.83C836.687 664.3 834.294 663.145 831.527 662.363C828.793 661.582 825.831 661.191 822.641 661.191C819.092 661.191 815.935 661.647 813.168 662.559C810.434 663.438 808.122 664.642 806.234 666.172C804.314 667.702 802.849 669.476 801.84 671.494C800.863 673.512 800.375 675.645 800.375 677.891H813.949C813.949 676.947 814.079 676.084 814.34 675.303C814.633 674.521 815.072 673.854 815.658 673.301C816.309 672.682 817.156 672.21 818.197 671.885C819.239 671.527 820.476 671.348 821.908 671.348C823.536 671.348 824.952 671.559 826.156 671.982C827.393 672.373 828.419 672.943 829.232 673.691C830.014 674.408 830.6 675.27 830.99 676.279C831.381 677.256 831.576 678.363 831.576 679.6V682.725H824.008C820.102 682.725 816.635 683.083 813.607 683.799C810.613 684.482 808.09 685.492 806.039 686.826C803.76 688.291 802.051 690.163 800.912 692.441C799.773 694.688 799.203 697.275 799.203 700.205C799.203 702.484 799.659 704.6 800.57 706.553C801.482 708.473 802.751 710.133 804.379 711.533C806.007 712.933 807.943 714.023 810.189 714.805C812.468 715.586 814.958 715.977 817.66 715.977C819.32 715.977 820.867 715.814 822.299 715.488C823.731 715.195 825.049 714.772 826.254 714.219C827.426 713.698 828.5 713.079 829.477 712.363C830.453 711.647 831.316 710.882 832.064 710.068C832.227 711.012 832.423 711.908 832.65 712.754C832.878 713.6 833.155 714.349 833.48 715ZM820.541 705.479C819.271 705.479 818.148 705.332 817.172 705.039C816.228 704.714 815.43 704.29 814.779 703.77C814.128 703.216 813.624 702.549 813.266 701.768C812.94 700.954 812.777 700.075 812.777 699.131C812.777 697.926 813.005 696.82 813.461 695.811C813.917 694.769 814.617 693.874 815.561 693.125C816.505 692.409 817.725 691.855 819.223 691.465C820.72 691.042 822.527 690.83 824.643 690.83H831.576V699.912C831.186 700.596 830.648 701.279 829.965 701.963C829.281 702.614 828.467 703.2 827.523 703.721C826.579 704.242 825.521 704.665 824.35 704.99C823.178 705.316 821.908 705.479 820.541 705.479ZM873.666 715H887.289V672.178H906.332V662.168H887.289V659.287C887.289 657.725 887.484 656.325 887.875 655.088C888.298 653.851 888.933 652.809 889.779 651.963C890.723 650.954 891.993 650.189 893.588 649.668C895.183 649.147 897.12 648.887 899.398 648.887C901.514 648.887 903.354 648.984 904.916 649.18C906.479 649.375 907.878 649.603 909.115 649.863L909.994 639.219C908.887 639.023 907.813 638.844 906.771 638.682C905.762 638.519 904.753 638.372 903.744 638.242C902.735 638.112 901.693 638.014 900.619 637.949C899.577 637.852 898.487 637.803 897.348 637.803C893.734 637.803 890.463 638.275 887.533 639.219C884.604 640.13 882.113 641.497 880.062 643.32C878.012 645.143 876.433 647.389 875.326 650.059C874.219 652.728 873.666 655.804 873.666 659.287V662.168H859.799V672.178H873.666V715ZM946.225 715.977C951.335 715.977 955.762 714.984 959.506 712.998C963.249 711.012 965.984 708.799 967.709 706.357L960.922 699.033C959.359 701.051 957.325 702.565 954.818 703.574C952.312 704.583 949.724 705.088 947.055 705.088C945.167 705.088 943.425 704.795 941.83 704.209C940.235 703.623 938.819 702.793 937.582 701.719C936.378 700.677 935.417 699.521 934.701 698.252C933.985 696.95 933.399 695.241 932.943 693.125V692.979H968.783V687.217C968.783 683.343 968.246 679.811 967.172 676.621C966.098 673.398 964.535 670.648 962.484 668.369C960.401 666.09 957.862 664.333 954.867 663.096C951.905 661.826 948.52 661.191 944.711 661.191C941.033 661.191 937.631 661.859 934.506 663.193C931.381 664.528 928.679 666.4 926.4 668.809C924.122 671.217 922.348 674.098 921.078 677.451C919.809 680.771 919.174 684.45 919.174 688.486V690.439C919.174 693.988 919.809 697.324 921.078 700.449C922.38 703.542 924.219 706.227 926.596 708.506C928.972 710.817 931.82 712.64 935.141 713.975C938.461 715.309 942.156 715.977 946.225 715.977ZM944.613 672.178C946.339 672.178 947.852 672.454 949.154 673.008C950.489 673.529 951.612 674.245 952.523 675.156C953.435 676.1 954.151 677.207 954.672 678.477C955.193 679.746 955.453 681.097 955.453 682.529V683.604H933.188C933.513 681.878 934.001 680.316 934.652 678.916C935.303 677.516 936.117 676.312 937.094 675.303C938.038 674.294 939.145 673.529 940.414 673.008C941.684 672.454 943.083 672.178 944.613 672.178ZM998.08 704.111L1027.96 670.322V662.168H980.209V673.203H1009.12L979.525 706.602V715H1029.18V704.111H998.08ZM1044.32 662.168V673.252H1059.36V703.965H1044.32V715H1087.39V703.965H1073.08V662.168H1044.32ZM1058.38 648.643C1058.38 649.684 1058.56 650.661 1058.92 651.572C1059.31 652.451 1059.85 653.2 1060.53 653.818C1061.21 654.469 1062.03 654.974 1062.97 655.332C1063.95 655.69 1065.02 655.869 1066.2 655.869C1068.6 655.869 1070.51 655.202 1071.91 653.867C1073.34 652.5 1074.06 650.758 1074.06 648.643C1074.06 646.527 1073.34 644.801 1071.91 643.467C1070.51 642.1 1068.6 641.416 1066.2 641.416C1065.02 641.416 1063.95 641.595 1062.97 641.953C1062.03 642.311 1061.21 642.799 1060.53 643.418C1059.85 644.069 1059.31 644.85 1058.92 645.762C1058.56 646.641 1058.38 647.601 1058.38 648.643ZM1100.77 715H1114.39V677.451C1114.84 676.735 1115.35 676.084 1115.9 675.498C1116.46 674.912 1117.07 674.408 1117.76 673.984C1118.6 673.398 1119.56 672.959 1120.64 672.666C1121.75 672.373 1122.95 672.227 1124.25 672.227C1125.81 672.227 1127.21 672.389 1128.45 672.715C1129.69 673.008 1130.75 673.545 1131.62 674.326C1132.5 675.107 1133.17 676.182 1133.63 677.549C1134.12 678.883 1134.36 680.592 1134.36 682.676V715H1147.93V682.48C1147.93 678.639 1147.48 675.384 1146.57 672.715C1145.69 670.013 1144.45 667.799 1142.86 666.074C1141.23 664.382 1139.31 663.145 1137.09 662.363C1134.88 661.582 1132.44 661.191 1129.77 661.191C1127.69 661.191 1125.72 661.484 1123.86 662.07C1122.01 662.656 1120.3 663.503 1118.73 664.609C1117.82 665.26 1116.96 665.993 1116.15 666.807C1115.33 667.62 1114.58 668.516 1113.9 669.492L1113.07 662.168H1100.77V715Z" fill="#4285F4"/>
<path d="M294.418 700.156L298.568 715H313.021L290.17 643.906H277.719L254.428 715H268.881L273.08 700.156H294.418ZM276.449 688.486L283.92 662.314L291.195 688.486H276.449ZM323.91 715H335.824L341.439 686.777L342.514 681.406L343.637 686.777L349.447 715H361.361L370.834 662.168H358.383L354.477 693.32L353.793 698.447L352.865 693.418L347.152 662.168H338.07L332.357 693.564L331.43 698.594L330.795 693.564L326.84 662.168H314.438L323.91 715ZM405.697 715.977C410.808 715.977 415.235 714.984 418.979 712.998C422.722 711.012 425.456 708.799 427.182 706.357L420.395 699.033C418.832 701.051 416.798 702.565 414.291 703.574C411.785 704.583 409.197 705.088 406.527 705.088C404.639 705.088 402.898 704.795 401.303 704.209C399.708 703.623 398.292 702.793 397.055 701.719C395.85 700.677 394.89 699.521 394.174 698.252C393.458 696.95 392.872 695.241 392.416 693.125V692.979H428.256V687.217C428.256 683.343 427.719 679.811 426.645 676.621C425.57 673.398 424.008 670.648 421.957 668.369C419.874 666.09 417.335 664.333 414.34 663.096C411.378 661.826 407.992 661.191 404.184 661.191C400.505 661.191 397.104 661.859 393.979 663.193C390.854 664.528 388.152 666.4 385.873 668.809C383.594 671.217 381.82 674.098 380.551 677.451C379.281 680.771 378.646 684.45 378.646 688.486V690.439C378.646 693.988 379.281 697.324 380.551 700.449C381.853 703.542 383.692 706.227 386.068 708.506C388.445 710.817 391.293 712.64 394.613 713.975C397.934 715.309 401.628 715.977 405.697 715.977ZM404.086 672.178C405.811 672.178 407.325 672.454 408.627 673.008C409.962 673.529 411.085 674.245 411.996 675.156C412.908 676.1 413.624 677.207 414.145 678.477C414.665 679.746 414.926 681.097 414.926 682.529V683.604H392.66C392.986 681.878 393.474 680.316 394.125 678.916C394.776 677.516 395.59 676.312 396.566 675.303C397.51 674.294 398.617 673.529 399.887 673.008C401.156 672.454 402.556 672.178 404.086 672.178ZM474.203 700.498C474.203 701.312 473.992 702.061 473.568 702.744C473.178 703.428 472.576 704.03 471.762 704.551C470.915 705.072 469.825 705.495 468.49 705.82C467.188 706.113 465.658 706.26 463.9 706.26C462.436 706.26 461.003 706.113 459.604 705.82C458.236 705.527 457.016 705.055 455.941 704.404C454.867 703.786 453.988 702.972 453.305 701.963C452.621 700.921 452.23 699.684 452.133 698.252H439.193C439.193 700.4 439.714 702.549 440.756 704.697C441.83 706.813 443.393 708.701 445.443 710.361C447.494 712.054 450.033 713.421 453.061 714.463C456.12 715.505 459.636 716.025 463.607 716.025C467.221 716.025 470.492 715.635 473.422 714.854C476.352 714.04 478.858 712.917 480.941 711.484C482.992 710.052 484.571 708.359 485.678 706.406C486.817 704.421 487.387 702.256 487.387 699.912C487.387 697.373 486.817 695.192 485.678 693.369C484.571 691.514 483.025 689.935 481.039 688.633C479.053 687.363 476.693 686.322 473.959 685.508C471.225 684.694 468.262 684.027 465.072 683.506C462.859 683.18 461.036 682.806 459.604 682.383C458.171 681.927 457.048 681.423 456.234 680.869C455.388 680.348 454.802 679.762 454.477 679.111C454.151 678.428 453.988 677.695 453.988 676.914C453.988 676.133 454.167 675.4 454.525 674.717C454.916 674.001 455.469 673.382 456.186 672.861C456.967 672.275 457.976 671.82 459.213 671.494C460.45 671.169 461.898 671.006 463.559 671.006C465.512 671.006 467.172 671.25 468.539 671.738C469.939 672.227 471.046 672.878 471.859 673.691C472.445 674.31 472.885 675.01 473.178 675.791C473.471 676.54 473.617 677.354 473.617 678.232H487.191C487.191 675.791 486.654 673.529 485.58 671.445C484.506 669.362 482.96 667.555 480.941 666.025C478.891 664.528 476.4 663.356 473.471 662.51C470.541 661.631 467.237 661.191 463.559 661.191C460.043 661.191 456.885 661.631 454.086 662.51C451.286 663.389 448.91 664.577 446.957 666.074C445.004 667.572 443.507 669.313 442.465 671.299C441.423 673.285 440.902 675.368 440.902 677.549C440.902 679.795 441.407 681.781 442.416 683.506C443.458 685.231 444.89 686.745 446.713 688.047C448.536 689.382 450.717 690.521 453.256 691.465C455.827 692.376 458.66 693.141 461.752 693.76C464.193 694.215 466.212 694.671 467.807 695.127C469.402 695.583 470.688 696.071 471.664 696.592C472.608 697.145 473.259 697.731 473.617 698.35C474.008 698.968 474.203 699.684 474.203 700.498ZM498.324 688.096V689.121C498.324 692.995 498.878 696.576 499.984 699.863C501.091 703.118 502.719 705.951 504.867 708.359C506.983 710.768 509.587 712.656 512.68 714.023C515.805 715.358 519.353 716.025 523.324 716.025C527.263 716.025 530.779 715.358 533.871 714.023C536.964 712.656 539.568 710.768 541.684 708.359C543.799 705.951 545.411 703.118 546.518 699.863C547.624 696.576 548.178 692.995 548.178 689.121V688.096C548.178 684.255 547.624 680.706 546.518 677.451C545.411 674.163 543.799 671.315 541.684 668.906C539.535 666.497 536.915 664.609 533.822 663.242C530.73 661.875 527.198 661.191 523.227 661.191C519.255 661.191 515.723 661.875 512.631 663.242C509.571 664.609 506.983 666.497 504.867 668.906C502.719 671.315 501.091 674.163 499.984 677.451C498.878 680.706 498.324 684.255 498.324 688.096ZM511.898 689.121V688.096C511.898 685.947 512.11 683.913 512.533 681.992C512.956 680.072 513.624 678.379 514.535 676.914C515.447 675.449 516.618 674.294 518.051 673.447C519.483 672.601 521.208 672.178 523.227 672.178C525.277 672.178 527.019 672.601 528.451 673.447C529.883 674.294 531.055 675.449 531.967 676.914C532.846 678.379 533.497 680.072 533.92 681.992C534.343 683.913 534.555 685.947 534.555 688.096V689.121C534.555 691.335 534.343 693.418 533.92 695.371C533.497 697.292 532.846 698.968 531.967 700.4C531.055 701.865 529.883 703.021 528.451 703.867C527.019 704.714 525.31 705.137 523.324 705.137C521.273 705.137 519.516 704.714 518.051 703.867C516.618 703.021 515.447 701.865 514.535 700.4C513.624 698.968 512.956 697.292 512.533 695.371C512.11 693.418 511.898 691.335 511.898 689.121ZM568.686 662.168H557.016V715H569.369V675.449C569.532 675.026 569.711 674.635 569.906 674.277C570.102 673.919 570.329 673.61 570.59 673.35C570.948 672.992 571.355 672.715 571.811 672.52C572.266 672.324 572.787 672.227 573.373 672.227C573.894 672.227 574.382 672.308 574.838 672.471C575.294 672.601 575.701 672.845 576.059 673.203C576.384 673.561 576.645 674.066 576.84 674.717C577.035 675.368 577.133 676.198 577.133 677.207V715H589.096V676.035C589.096 675.645 589.096 675.335 589.096 675.107C589.096 674.88 589.096 674.733 589.096 674.668C589.258 674.31 589.454 674.001 589.682 673.74C589.91 673.447 590.17 673.187 590.463 672.959C590.821 672.731 591.195 672.552 591.586 672.422C592.009 672.292 592.481 672.227 593.002 672.227C593.49 672.227 593.962 672.308 594.418 672.471C594.906 672.601 595.329 672.845 595.688 673.203C596.046 673.594 596.322 674.115 596.518 674.766C596.745 675.417 596.859 676.247 596.859 677.256V715H609.213V677.305C609.213 674.375 608.92 671.901 608.334 669.883C607.781 667.832 606.999 666.156 605.99 664.854C604.949 663.584 603.728 662.656 602.328 662.07C600.961 661.484 599.48 661.191 597.885 661.191C596.615 661.191 595.443 661.354 594.369 661.68C593.295 662.005 592.335 662.461 591.488 663.047C590.805 663.503 590.17 664.056 589.584 664.707C589.031 665.326 588.526 666.025 588.07 666.807C587.777 665.993 587.419 665.277 586.996 664.658C586.605 664.007 586.133 663.454 585.58 662.998C584.864 662.38 584.018 661.924 583.041 661.631C582.064 661.338 580.958 661.191 579.721 661.191C577.182 661.191 575.017 661.859 573.227 663.193C571.469 664.495 570.085 666.286 569.076 668.564L568.686 662.168ZM645.932 715.977C651.042 715.977 655.469 714.984 659.213 712.998C662.956 711.012 665.691 708.799 667.416 706.357L660.629 699.033C659.066 701.051 657.032 702.565 654.525 703.574C652.019 704.583 649.431 705.088 646.762 705.088C644.874 705.088 643.132 704.795 641.537 704.209C639.942 703.623 638.526 702.793 637.289 701.719C636.085 700.677 635.124 699.521 634.408 698.252C633.692 696.95 633.106 695.241 632.65 693.125V692.979H668.49V687.217C668.49 683.343 667.953 679.811 666.879 676.621C665.805 673.398 664.242 670.648 662.191 668.369C660.108 666.09 657.569 664.333 654.574 663.096C651.612 661.826 648.227 661.191 644.418 661.191C640.74 661.191 637.338 661.859 634.213 663.193C631.088 664.528 628.386 666.4 626.107 668.809C623.829 671.217 622.055 674.098 620.785 677.451C619.516 680.771 618.881 684.45 618.881 688.486V690.439C618.881 693.988 619.516 697.324 620.785 700.449C622.087 703.542 623.926 706.227 626.303 708.506C628.679 710.817 631.527 712.64 634.848 713.975C638.168 715.309 641.863 715.977 645.932 715.977ZM644.32 672.178C646.046 672.178 647.559 672.454 648.861 673.008C650.196 673.529 651.319 674.245 652.23 675.156C653.142 676.1 653.858 677.207 654.379 678.477C654.9 679.746 655.16 681.097 655.16 682.529V683.604H632.895C633.22 681.878 633.708 680.316 634.359 678.916C635.01 677.516 635.824 676.312 636.801 675.303C637.745 674.294 638.852 673.529 640.121 673.008C641.391 672.454 642.79 672.178 644.32 672.178ZM789.291 692.734H775.57C775.44 694.883 775.082 696.722 774.496 698.252C773.91 699.782 773.113 701.035 772.104 702.012C771.094 702.988 769.874 703.704 768.441 704.16C767.009 704.616 765.398 704.844 763.607 704.844C762.273 704.844 761.052 704.697 759.945 704.404C758.871 704.079 757.895 703.59 757.016 702.939C756.202 702.354 755.469 701.621 754.818 700.742C754.2 699.863 753.663 698.854 753.207 697.715C752.556 696.055 752.068 694.118 751.742 691.904C751.449 689.658 751.303 687.119 751.303 684.287V674.619C751.303 672.536 751.4 670.599 751.596 668.809C751.791 666.986 752.1 665.326 752.523 663.828C753.077 661.908 753.809 660.231 754.721 658.799C755.665 657.334 756.804 656.211 758.139 655.43C758.92 654.974 759.766 654.632 760.678 654.404C761.622 654.176 762.631 654.062 763.705 654.062C765.723 654.062 767.449 654.339 768.881 654.893C770.346 655.413 771.566 656.195 772.543 657.236C773.487 658.311 774.203 659.645 774.691 661.24C775.212 662.835 775.538 664.691 775.668 666.807H789.34C789.014 663.096 788.233 659.759 786.996 656.797C785.759 653.835 784.066 651.328 781.918 649.277C779.77 647.227 777.165 645.648 774.105 644.541C771.078 643.434 767.611 642.881 763.705 642.881C761.068 642.881 758.594 643.223 756.283 643.906C754.005 644.557 751.905 645.501 749.984 646.738C747.836 648.203 745.915 649.993 744.223 652.109C742.53 654.225 741.163 656.634 740.121 659.336C739.21 661.549 738.526 663.958 738.07 666.562C737.615 669.134 737.387 671.852 737.387 674.717V684.287C737.387 687.347 737.631 690.244 738.119 692.979C738.64 695.713 739.372 698.219 740.316 700.498C741.293 702.777 742.481 704.86 743.881 706.748C745.313 708.636 746.941 710.247 748.764 711.582C750.749 713.014 752.979 714.121 755.453 714.902C757.96 715.651 760.678 716.025 763.607 716.025C767.318 716.025 770.704 715.488 773.764 714.414C776.824 713.307 779.46 711.745 781.674 709.727C783.887 707.708 785.645 705.267 786.947 702.402C788.282 699.538 789.063 696.315 789.291 692.734ZM833.48 715H847.25V714.17C846.566 712.835 846.046 711.24 845.688 709.385C845.329 707.529 845.15 705.186 845.15 702.354V679.697C845.15 676.637 844.581 673.952 843.441 671.641C842.302 669.297 840.723 667.36 838.705 665.83C836.687 664.3 834.294 663.145 831.527 662.363C828.793 661.582 825.831 661.191 822.641 661.191C819.092 661.191 815.935 661.647 813.168 662.559C810.434 663.438 808.122 664.642 806.234 666.172C804.314 667.702 802.849 669.476 801.84 671.494C800.863 673.512 800.375 675.645 800.375 677.891H813.949C813.949 676.947 814.079 676.084 814.34 675.303C814.633 674.521 815.072 673.854 815.658 673.301C816.309 672.682 817.156 672.21 818.197 671.885C819.239 671.527 820.476 671.348 821.908 671.348C823.536 671.348 824.952 671.559 826.156 671.982C827.393 672.373 828.419 672.943 829.232 673.691C830.014 674.408 830.6 675.27 830.99 676.279C831.381 677.256 831.576 678.363 831.576 679.6V682.725H824.008C820.102 682.725 816.635 683.083 813.607 683.799C810.613 684.482 808.09 685.492 806.039 686.826C803.76 688.291 802.051 690.163 800.912 692.441C799.773 694.688 799.203 697.275 799.203 700.205C799.203 702.484 799.659 704.6 800.57 706.553C801.482 708.473 802.751 710.133 804.379 711.533C806.007 712.933 807.943 714.023 810.189 714.805C812.468 715.586 814.958 715.977 817.66 715.977C819.32 715.977 820.867 715.814 822.299 715.488C823.731 715.195 825.049 714.772 826.254 714.219C827.426 713.698 828.5 713.079 829.477 712.363C830.453 711.647 831.316 710.882 832.064 710.068C832.227 711.012 832.423 711.908 832.65 712.754C832.878 713.6 833.155 714.349 833.48 715ZM820.541 705.479C819.271 705.479 818.148 705.332 817.172 705.039C816.228 704.714 815.43 704.29 814.779 703.77C814.128 703.216 813.624 702.549 813.266 701.768C812.94 700.954 812.777 700.075 812.777 699.131C812.777 697.926 813.005 696.82 813.461 695.811C813.917 694.769 814.617 693.874 815.561 693.125C816.505 692.409 817.725 691.855 819.223 691.465C820.72 691.042 822.527 690.83 824.643 690.83H831.576V699.912C831.186 700.596 830.648 701.279 829.965 701.963C829.281 702.614 828.467 703.2 827.523 703.721C826.579 704.242 825.521 704.665 824.35 704.99C823.178 705.316 821.908 705.479 820.541 705.479ZM873.666 715H887.289V672.178H906.332V662.168H887.289V659.287C887.289 657.725 887.484 656.325 887.875 655.088C888.298 653.851 888.933 652.809 889.779 651.963C890.723 650.954 891.993 650.189 893.588 649.668C895.183 649.147 897.12 648.887 899.398 648.887C901.514 648.887 903.354 648.984 904.916 649.18C906.479 649.375 907.878 649.603 909.115 649.863L909.994 639.219C908.887 639.023 907.813 638.844 906.771 638.682C905.762 638.519 904.753 638.372 903.744 638.242C902.735 638.112 901.693 638.014 900.619 637.949C899.577 637.852 898.487 637.803 897.348 637.803C893.734 637.803 890.463 638.275 887.533 639.219C884.604 640.13 882.113 641.497 880.062 643.32C878.012 645.143 876.433 647.389 875.326 650.059C874.219 652.728 873.666 655.804 873.666 659.287V662.168H859.799V672.178H873.666V715ZM946.225 715.977C951.335 715.977 955.762 714.984 959.506 712.998C963.249 711.012 965.984 708.799 967.709 706.357L960.922 699.033C959.359 701.051 957.325 702.565 954.818 703.574C952.312 704.583 949.724 705.088 947.055 705.088C945.167 705.088 943.425 704.795 941.83 704.209C940.235 703.623 938.819 702.793 937.582 701.719C936.378 700.677 935.417 699.521 934.701 698.252C933.985 696.95 933.399 695.241 932.943 693.125V692.979H968.783V687.217C968.783 683.343 968.246 679.811 967.172 676.621C966.098 673.398 964.535 670.648 962.484 668.369C960.401 666.09 957.862 664.333 954.867 663.096C951.905 661.826 948.52 661.191 944.711 661.191C941.033 661.191 937.631 661.859 934.506 663.193C931.381 664.528 928.679 666.4 926.4 668.809C924.122 671.217 922.348 674.098 921.078 677.451C919.809 680.771 919.174 684.45 919.174 688.486V690.439C919.174 693.988 919.809 697.324 921.078 700.449C922.38 703.542 924.219 706.227 926.596 708.506C928.972 710.817 931.82 712.64 935.141 713.975C938.461 715.309 942.156 715.977 946.225 715.977ZM944.613 672.178C946.339 672.178 947.852 672.454 949.154 673.008C950.489 673.529 951.612 674.245 952.523 675.156C953.435 676.1 954.151 677.207 954.672 678.477C955.193 679.746 955.453 681.097 955.453 682.529V683.604H933.188C933.513 681.878 934.001 680.316 934.652 678.916C935.303 677.516 936.117 676.312 937.094 675.303C938.038 674.294 939.145 673.529 940.414 673.008C941.684 672.454 943.083 672.178 944.613 672.178ZM998.08 704.111L1027.96 670.322V662.168H980.209V673.203H1009.12L979.525 706.602V715H1029.18V704.111H998.08ZM1044.32 662.168V673.252H1059.36V703.965H1044.32V715H1087.39V703.965H1073.08V662.168H1044.32ZM1058.38 648.643C1058.38 649.684 1058.56 650.661 1058.92 651.572C1059.31 652.451 1059.85 653.2 1060.53 653.818C1061.21 654.469 1062.03 654.974 1062.97 655.332C1063.95 655.69 1065.02 655.869 1066.2 655.869C1068.6 655.869 1070.51 655.202 1071.91 653.867C1073.34 652.5 1074.06 650.758 1074.06 648.643C1074.06 646.527 1073.34 644.801 1071.91 643.467C1070.51 642.1 1068.6 641.416 1066.2 641.416C1065.02 641.416 1063.95 641.595 1062.97 641.953C1062.03 642.311 1061.21 642.799 1060.53 643.418C1059.85 644.069 1059.31 644.85 1058.92 645.762C1058.56 646.641 1058.38 647.601 1058.38 648.643ZM1100.77 715H1114.39V677.451C1114.84 676.735 1115.35 676.084 1115.9 675.498C1116.46 674.912 1117.07 674.408 1117.76 673.984C1118.6 673.398 1119.56 672.959 1120.64 672.666C1121.75 672.373 1122.95 672.227 1124.25 672.227C1125.81 672.227 1127.21 672.389 1128.45 672.715C1129.69 673.008 1130.75 673.545 1131.62 674.326C1132.5 675.107 1133.17 676.182 1133.63 677.549C1134.12 678.883 1134.36 680.592 1134.36 682.676V715H1147.93V682.48C1147.93 678.639 1147.48 675.384 1146.57 672.715C1145.69 670.013 1144.45 667.799 1142.86 666.074C1141.23 664.382 1139.31 663.145 1137.09 662.363C1134.88 661.582 1132.44 661.191 1129.77 661.191C1127.69 661.191 1125.72 661.484 1123.86 662.07C1122.01 662.656 1120.3 663.503 1118.73 664.609C1117.82 665.26 1116.96 665.993 1116.15 666.807C1115.33 667.62 1114.58 668.516 1113.9 669.492L1113.07 662.168H1100.77V715Z" fill="url(#paint1_linear)"/>
<defs>
<linearGradient id="paint0_linear" x1="703.708" y1="0" x2="703.708" y2="578" gradientUnits="userSpaceOnUse">
<stop stop-color="#EC7100"/>
<stop offset="1" stop-color="white" stop-opacity="0"/>
</linearGradient>
<linearGradient id="paint1_linear" x1="703.5" y1="606" x2="703.5" y2="747" gradientUnits="userSpaceOnUse">
<stop stop-color="#FF2DF7"/>
<stop offset="1" stop-color="#F10D0D"/>
</linearGradient>
</defs>
</svg>
